<svg width="277" height="326" viewBox="0 0 277 326" fill="none" xmlns="http://www.w3.org/2000/svg">
<path d="M109.927 306.466C109.927 316.754 101.615 325.067 91.3261 325.067C81.0376 325.067 72.7249 316.72 72.7249 306.466C72.7249 296.211 81.0376 287.865 91.3261 287.865C101.615 287.865 109.927 296.177 109.927 306.466Z" fill="#2C3E50"/>
<path d="M101.274 306.466C101.274 311.985 96.8111 316.414 91.3262 316.414C85.8412 316.414 81.3783 311.951 81.3783 306.466C81.3783 300.981 85.8412 296.518 91.3262 296.518C96.8111 296.518 101.274 300.981 101.274 306.466Z" fill="#ECF0F1"/>
<path d="M85.8752 272.262V310.69H95.7209L113.879 272.262H85.8752Z" fill="#95A5A6"/>
<path d="M231.073 306.466C231.073 316.754 222.761 325.067 212.472 325.067C202.184 325.067 193.871 316.72 193.871 306.466C193.871 296.211 202.184 287.865 212.472 287.865C222.761 287.865 231.073 296.177 231.073 306.466Z" fill="#2C3E50"/>
<path d="M222.454 306.466C222.454 311.985 217.991 316.414 212.506 316.414C207.021 316.414 202.558 311.951 202.558 306.466C202.558 300.981 207.021 296.518 212.506 296.518C217.991 296.518 222.454 300.981 222.454 306.466Z" fill="#ECF0F1"/>
<path d="M207.021 272.262V310.69H216.867L235.025 272.262H207.021Z" fill="#95A5A6"/>
<path d="M239.931 277.236H74.4624C68.2961 277.236 62.6748 274.408 59.0296 269.468C55.3843 264.528 54.2941 258.328 56.0657 252.434L73.5426 194.586C76.0296 186.41 83.4223 180.925 91.9393 180.925H142.326C147.709 180.925 152.853 183.208 156.498 187.16C160.144 191.112 161.949 196.46 161.506 201.809L157.725 246.2C157.486 248.823 158.372 251.344 160.144 253.286C161.915 255.228 164.368 256.284 166.991 256.284H193.871C196.631 256.284 198.845 258.498 198.845 261.258C198.845 264.017 196.631 266.232 193.871 266.232H166.991C161.609 266.232 156.464 263.949 152.819 259.997C149.174 256.045 147.368 250.697 147.811 245.348L151.593 200.957C151.831 198.334 150.945 195.813 149.174 193.871C147.402 191.929 144.949 190.873 142.326 190.873H91.9393C87.8171 190.873 84.2399 193.53 83.0476 197.482L65.5707 255.33C64.719 258.192 65.23 261.19 67.0015 263.574C68.7731 265.959 71.4985 267.322 74.4624 267.322H239.931C242.691 267.322 244.905 269.536 244.905 272.296C244.905 275.055 242.691 277.27 239.931 277.27V277.236Z" fill="#BDC3C7"/>
<path d="M235.025 183.514H82.2641C71.2601 183.514 61.687 175.713 59.4385 164.947L32.7972 36.8172L267.833 88.4303L258.123 163.176C256.624 174.759 246.677 183.48 234.991 183.48L235.025 183.514ZM45.6749 49.8312L69.1819 162.937C70.4765 169.104 75.9615 173.6 82.2641 173.6H235.025C241.737 173.6 247.426 168.592 248.278 161.949L256.829 96.2319L45.6749 49.8312Z" fill="#BDC3C7"/>
<path d="M105.328 183.514C102.909 183.514 100.797 181.777 100.422 179.324L80.9354 54.3282C80.5266 51.6028 82.3662 49.0817 85.0917 48.6388C87.7831 48.23 90.3382 50.0697 90.781 52.7951L110.268 177.791C110.677 180.516 108.837 183.037 106.112 183.48C105.839 183.514 105.601 183.548 105.328 183.548V183.514Z" fill="#BDC3C7"/>
<path d="M135.955 183.514C133.366 183.514 131.186 181.504 131.015 178.881L123.18 63.8332C123.009 61.1077 125.054 58.723 127.813 58.5526C130.504 58.3823 132.923 60.4264 133.094 63.1859L140.929 178.234C141.134 180.959 139.056 183.344 136.296 183.514C136.194 183.514 136.057 183.514 135.955 183.514Z" fill="#BDC3C7"/>
<path d="M167.945 180.176C165.186 180.176 162.971 177.961 162.971 175.202V71.5667C162.971 68.8071 165.186 66.5927 167.945 66.5927C170.705 66.5927 172.919 68.8071 172.919 71.5667V175.202C172.919 177.961 170.705 180.176 167.945 180.176Z" fill="#BDC3C7"/>
<path d="M200.037 183.514C200.037 183.514 199.867 183.514 199.799 183.514C197.039 183.378 194.927 181.061 195.063 178.336L199.56 81.6508C199.697 78.9935 201.877 76.9153 204.534 76.9153C204.602 76.9153 204.705 76.9153 204.773 76.9153C207.532 77.0516 209.645 79.3682 209.508 82.0937L205.011 178.779C204.875 181.436 202.695 183.514 200.037 183.514Z" fill="#BDC3C7"/>
<path d="M228.143 180.176C228.143 180.176 227.803 180.176 227.632 180.176C224.907 179.903 222.897 177.45 223.17 174.725L232.061 86.2841C232.334 83.5586 234.753 81.5827 237.512 81.8211C240.238 82.0937 242.248 84.5125 241.975 87.272L233.083 175.713C232.811 178.268 230.665 180.176 228.143 180.176Z" fill="#BDC3C7"/>
<path d="M259.009 122.907C258.805 122.907 258.6 122.907 258.362 122.873L48.5707 96.1979C45.8452 95.8572 43.9374 93.3702 44.2781 90.6448C44.6188 87.9193 47.1398 86.0115 49.8312 86.3522L259.622 113.027C262.348 113.368 264.256 115.855 263.915 118.581C263.608 121.102 261.462 122.941 258.975 122.941L259.009 122.907Z" fill="#BDC3C7"/>
<path d="M255.5 150.025C255.5 150.025 255.364 150.025 255.296 150.025L58.5526 142.054C55.7931 141.951 53.6809 139.635 53.7831 136.875C53.8853 134.15 56.236 132.037 58.9615 132.106L255.705 140.078C258.43 140.18 260.576 142.496 260.474 145.256C260.372 147.947 258.158 150.025 255.5 150.025Z" fill="#BDC3C7"/>
<path d="M261.598 105.669L222.454 96.0275L228.041 73.3723L267.186 83.0135C273.454 84.5466 277.27 90.8832 275.737 97.1177C274.204 103.386 267.867 107.202 261.632 105.669H261.598Z" fill="#E74C3C"/>
<path d="M272.296 85.8412C269.298 92.5526 261.053 95.9935 254.001 94.2219C244.769 91.9053 235.707 89.3161 227.087 85.1939C226.474 84.8873 225.895 84.5466 225.35 84.1378L222.42 95.9935L261.564 105.635C267.833 107.168 274.135 103.352 275.668 97.0837C276.725 92.8251 275.26 88.6007 272.262 85.8071L272.296 85.8412Z" fill="#C0392B"/>
<path d="M24.4505 4.45255L57.9054 40.0877L37.2942 59.4384L3.83931 23.8373C-1.50938 18.1479 -1.23681 9.18801 4.45256 3.83932C10.1419 -1.50937 19.1018 -1.23682 24.4505 4.45255Z" fill="#C0392B"/>
<path d="M20.2942 13.8553C20.2942 17.5687 17.2622 20.6008 13.5487 20.6008C9.83533 20.6008 6.80328 17.5687 6.80328 13.8553C6.80328 10.1419 9.83533 7.10984 13.5487 7.10984C17.2622 7.10984 20.2942 10.1419 20.2942 13.8553Z" fill="#ECF0F1"/>
<path d="M43.4605 40.701C43.4605 43.0176 41.5868 44.8914 39.2702 44.8914C36.9535 44.8914 35.0797 43.0176 35.0797 40.701C35.0797 38.3844 36.9535 36.5106 39.2702 36.5106C41.5868 36.5106 43.4605 38.3844 43.4605 40.701Z" fill="#ECF0F1"/>
</svg>
